  <svg
    width="20"
    height="20"
    viewBox="0 0 20 20"
    fill="none"
    xmlns="http://www.w3.org/2000/svg"
  >
    <path
      fill-rule="evenodd"
      clip-rule="evenodd"
      d="M6.59663 2.91675C4.36079 2.91675 2.91663 4.27925 2.91663 6.38758V13.6117C2.91663 15.7201 4.36079 17.0834 6.59663 17.0834H13.4033C15.6391 17.0834 17.0833 15.7201 17.0833 13.6117V6.38758C17.0833 4.27925 15.6391 2.91675 13.4033 2.91675H6.59663ZM13.4033 18.3334H6.59663C3.64829 18.3334 1.66663 16.4359 1.66663 13.6117V6.38758C1.66663 3.56341 3.64829 1.66675 6.59663 1.66675H13.4033C16.3516 1.66675 18.3333 3.56341 18.3333 6.38758V13.6117C18.3333 16.4359 16.3516 18.3334 13.4033 18.3334Z"
      fill="#5E626F"
    />
    <path
      fill-rule="evenodd"
      clip-rule="evenodd"
      d="M13.4048 10.625H6.59485C6.24985 10.625 5.96985 10.345 5.96985 10C5.96985 9.655 6.24985 9.375 6.59485 9.375H13.4048C13.7498 9.375 14.0298 9.655 14.0298 10C14.0298 10.345 13.7498 10.625 13.4048 10.625Z"
      fill="#5E626F"
    />
    <path
      fill-rule="evenodd"
      clip-rule="evenodd"
      d="M10.2685 13.7484C10.1085 13.7484 9.94769 13.6876 9.82602 13.5642C9.58269 13.3192 9.58352 12.9242 9.82769 12.6809L12.5194 10.0001L9.82769 7.31925C9.58352 7.07591 9.58269 6.68091 9.82602 6.43591C10.0694 6.19091 10.4644 6.19091 10.7094 6.43425L13.846 9.55758C13.9644 9.67425 14.0302 9.83425 14.0302 10.0001C14.0302 10.1659 13.9644 10.3259 13.846 10.4426L10.7094 13.5659C10.5877 13.6876 10.4277 13.7484 10.2685 13.7484Z"
      fill="#5E626F"
    />
  </svg>
